<svg width="25" height="25" viewBox="0 0 25 25" fill="none" xmlns="http://www.w3.org/2000/svg">
<g clip-path="url(#clip0_19_1507)">
<path d="M4.16669 5.20829C4.16669 4.93203 4.27643 4.66707 4.47178 4.47172C4.66713 4.27637 4.93209 4.16663 5.20835 4.16663H9.37502C9.65129 4.16663 9.91624 4.27637 10.1116 4.47172C10.3069 4.66707 10.4167 4.93203 10.4167 5.20829V10.4166C10.4167 10.6929 10.3069 10.9578 10.1116 11.1532C9.91624 11.3485 9.65129 11.4583 9.37502 11.4583H5.20835C4.93209 11.4583 4.66713 11.3485 4.47178 11.1532C4.27643 10.9578 4.16669 10.6929 4.16669 10.4166V5.20829ZM14.5834 5.20829C14.5834 4.93203 14.6931 4.66707 14.8885 4.47172C15.0838 4.27637 15.3488 4.16663 15.625 4.16663H19.7917C20.068 4.16663 20.3329 4.27637 20.5283 4.47172C20.7236 4.66707 20.8334 4.93203 20.8334 5.20829V7.29163C20.8334 7.56789 20.7236 7.83284 20.5283 8.0282C20.3329 8.22355 20.068 8.33329 19.7917 8.33329H15.625C15.3488 8.33329 15.0838 8.22355 14.8885 8.0282C14.6931 7.83284 14.5834 7.56789 14.5834 7.29163V5.20829ZM4.16669 16.6666C4.16669 16.3904 4.27643 16.1254 4.47178 15.9301C4.66713 15.7347 4.93209 15.625 5.20835 15.625H9.37502C9.65129 15.625 9.91624 15.7347 10.1116 15.9301C10.3069 16.1254 10.4167 16.3904 10.4167 16.6666V19.7916C10.4167 20.0679 10.3069 20.3328 10.1116 20.5282C9.91624 20.7235 9.65129 20.8333 9.37502 20.8333H5.20835C4.93209 20.8333 4.66713 20.7235 4.47178 20.5282C4.27643 20.3328 4.16669 20.0679 4.16669 19.7916V16.6666ZM14.5834 13.5416C14.5834 13.2654 14.6931 13.0004 14.8885 12.8051C15.0838 12.6097 15.3488 12.5 15.625 12.5H19.7917C20.068 12.5 20.3329 12.6097 20.5283 12.8051C20.7236 13.0004 20.8334 13.2654 20.8334 13.5416V19.7916C20.8334 20.0679 20.7236 20.3328 20.5283 20.5282C20.3329 20.7235 20.068 20.8333 19.7917 20.8333H15.625C15.3488 20.8333 15.0838 20.7235 14.8885 20.5282C14.6931 20.3328 14.5834 20.0679 14.5834 19.7916V13.5416Z" fill="#967BB6" stroke="#967BB6" stroke-width="66.6667"/>
</g>
<defs>
<clipPath id="clip0_19_1507">
<rect width="25" height="25" fill="white"/>
</clipPath>
</defs>
</svg>
