<svg width="20" height="23" viewBox="0 0 20 23" fill="none" xmlns="http://www.w3.org/2000/svg">
<path d="M13.4492 13.8125C12.2031 13.8125 11.6445 14.5 9.625 14.5C7.5625 14.5 7.00391 13.8125 5.75781 13.8125C2.57812 13.8125 0 16.4336 0 19.6133V20.6875C0 21.8477 0.902344 22.75 2.0625 22.75H17.1875C18.3047 22.75 19.25 21.8477 19.25 20.6875V19.6133C19.25 16.4336 16.6289 13.8125 13.4492 13.8125ZM17.1875 20.6875H2.0625V19.6133C2.0625 17.5508 3.69531 15.875 5.75781 15.875C6.40234 15.875 7.39062 16.5625 9.625 16.5625C11.8164 16.5625 12.8047 15.875 13.4492 15.875C15.5117 15.875 17.1875 17.5508 17.1875 19.6133V20.6875ZM9.625 13.125C13.0195 13.125 15.8125 10.375 15.8125 6.9375C15.8125 3.54297 13.0195 0.75 9.625 0.75C6.1875 0.75 3.4375 3.54297 3.4375 6.9375C3.4375 10.375 6.1875 13.125 9.625 13.125ZM9.625 2.8125C11.8594 2.8125 13.75 4.70312 13.75 6.9375C13.75 9.21484 11.8594 11.0625 9.625 11.0625C7.34766 11.0625 5.5 9.21484 5.5 6.9375C5.5 4.70312 7.34766 2.8125 9.625 2.8125Z" fill="#967BB6"/>
</svg>
