<svg width="25" height="25" viewBox="0 0 25 25" fill="none" xmlns="http://www.w3.org/2000/svg">
<path d="M24.2188 22.9531H22.2656V12.1562C22.2591 12.0125 22.2207 11.872 22.1531 11.745C22.0856 11.618 21.9906 11.5076 21.875 11.4219L13.125 4.21874C12.9452 4.07549 12.7221 3.9975 12.4922 3.9975C12.2623 3.9975 12.0392 4.07549 11.8594 4.21874L3.125 11.4219C3.01805 11.5122 2.93194 11.6246 2.8726 11.7514C2.81325 11.8781 2.78209 12.0163 2.78125 12.1562V22.9531H0.78125V12.1562C0.781825 11.7261 0.877355 11.3014 1.06102 10.9125C1.24469 10.5235 1.51196 10.18 1.84375 9.90624L10.625 2.71874C11.1509 2.28572 11.811 2.04895 12.4922 2.04895C13.1734 2.04895 13.8335 2.28572 14.3594 2.71874L23.1562 9.90624C23.488 10.18 23.7553 10.5235 23.939 10.9125C24.1226 11.3014 24.2182 11.7261 24.2188 12.1562V22.9531Z" fill="#967BB6"/>
<path d="M17.2656 18.9219H15.3125C15.2721 18.2144 14.9539 17.5515 14.4272 17.0774C13.9005 16.6033 13.2078 16.3565 12.5 16.3906C11.7922 16.3565 11.0995 16.6033 10.5728 17.0774C10.0461 17.5515 9.72788 18.2144 9.6875 18.9219H7.8125C7.86488 17.7142 8.38177 16.5735 9.25523 15.7379C10.1287 14.9022 11.2912 14.4364 12.5 14.4375C13.7222 14.416 14.9045 14.8728 15.7948 15.7105C16.6851 16.5482 17.2128 17.7006 17.2656 18.9219ZM7.73438 18.9219H9.6875V22.9531H7.73438V18.9219ZM15.3125 18.9219H17.2656V22.9531H15.3125V18.9219Z" fill="#967BB6"/>
</svg>
