<svg width="25" height="25" viewBox="0 0 25 25" fill="none" xmlns="http://www.w3.org/2000/svg">
<path fill-rule="evenodd" clip-rule="evenodd" d="M13.2812 2.86462C13.2812 2.65742 13.1989 2.45871 13.0524 2.3122C12.9059 2.16568 12.7072 2.08337 12.5 2.08337C12.2928 2.08337 12.0941 2.16568 11.9476 2.3122C11.801 2.45871 11.7187 2.65742 11.7187 2.86462V4.68754H9.66249C9.29654 4.68738 8.93902 4.79736 8.63644 5.00317L6.87082 6.20525C6.82748 6.2346 6.77629 6.25021 6.72394 6.25004H2.45103C2.24383 6.25004 2.04511 6.33235 1.8986 6.47886C1.75209 6.62538 1.66978 6.82409 1.66978 7.03129C1.66978 7.23849 1.75209 7.4372 1.8986 7.58372C2.04511 7.73023 2.24383 7.81254 2.45103 7.81254H4.09374L0.586444 15.8125C0.520195 15.9687 0.505691 16.1419 0.545056 16.3069C0.584422 16.4718 0.675588 16.6198 0.805194 16.7292C0.888527 16.7959 0.972902 16.8594 1.12707 16.9594C1.32082 17.0855 1.5979 17.249 1.95207 17.4105C2.6604 17.7344 3.68332 18.0563 4.9479 18.0563C5.98127 18.0583 7.00297 17.838 7.94374 17.4105C8.2979 17.249 8.57499 17.0855 8.76874 16.9594C8.92499 16.8584 9.00832 16.7948 9.09165 16.7271C9.2223 16.619 9.3142 16.4712 9.35347 16.3062C9.39275 16.1413 9.37726 15.968 9.30936 15.8125L5.80103 7.81254H6.72394C7.08957 7.81254 7.44686 7.70212 7.74894 7.49692L9.51561 6.29483C9.55866 6.26568 9.60945 6.25008 9.66144 6.25004H11.7187V21.3542H7.04478C6.83758 21.3542 6.63886 21.4365 6.49235 21.583C6.34584 21.7295 6.26353 21.9283 6.26353 22.1355C6.26353 22.3427 6.34584 22.5414 6.49235 22.6879C6.63886 22.8344 6.83758 22.9167 7.04478 22.9167H17.9552C18.1624 22.9167 18.3611 22.8344 18.5076 22.6879C18.6541 22.5414 18.7364 22.3427 18.7364 22.1355C18.7364 21.9283 18.6541 21.7295 18.5076 21.583C18.3611 21.4365 18.1624 21.3542 17.9552 21.3542H13.2812V6.25004H15.3375C15.3896 6.25004 15.4417 6.26567 15.4833 6.29483L17.251 7.49692C17.5531 7.70212 17.9104 7.81254 18.276 7.81254H19.1989L15.6906 15.8125C15.6205 15.9725 15.6059 16.1514 15.6494 16.3205C15.6928 16.4897 15.7917 16.6395 15.9302 16.7459C15.9427 16.7552 15.9302 16.7459 15.9323 16.7459C16.0356 16.8237 16.1434 16.8953 16.2552 16.9605C16.4479 17.0771 16.7239 17.2271 17.0781 17.3771C18.02 17.7708 19.0312 17.972 20.0521 17.9688C21.0734 17.9718 22.0849 17.7703 23.0271 17.3761C23.3792 17.2271 23.6562 17.0771 23.85 16.9605C23.9614 16.8947 24.0691 16.8231 24.1729 16.7459C24.3114 16.6395 24.4103 16.4897 24.4537 16.3205C24.4972 16.1514 24.4826 15.9725 24.4125 15.8125L20.9062 7.81254H22.55C22.7572 7.81254 22.9559 7.73023 23.1024 7.58372C23.2489 7.4372 23.3312 7.23849 23.3312 7.03129C23.3312 6.82409 23.2489 6.62538 23.1024 6.47886C22.9559 6.33235 22.7572 6.25004 22.55 6.25004H18.2771C18.2251 6.25 18.1743 6.2344 18.1312 6.20525L16.3635 5.00317C16.0612 4.79756 15.7041 4.68759 15.3385 4.68754H13.2812V2.86462ZM2.28436 15.8313C3.10426 16.2676 4.01915 16.4948 4.9479 16.4927C5.87665 16.4948 6.79155 16.2676 7.61144 15.8313L4.9479 9.75837L2.28436 15.8313ZM17.3989 15.8063C17.4844 15.848 17.5802 15.8927 17.6854 15.9375C18.2375 16.1698 19.0448 16.4063 20.0521 16.4063C20.9704 16.4089 21.8774 16.2038 22.7052 15.8063L20.0521 9.75733L17.3989 15.8063Z" fill="#967BB6"/>
</svg>
