<svg width="17" height="25" viewBox="0 0 17 25" fill="none" xmlns="http://www.w3.org/2000/svg">
<path d="M4.82438 24.9672C5.06858 25.097 5.32618 24.8159 5.17667 24.5832C4.36515 23.3202 3.59668 21.1948 4.82103 18.4577C6.86278 13.8933 8.10519 11.5292 8.10519 11.5292C8.10519 11.5292 8.76602 14.288 10.5574 16.741C12.2814 19.1019 13.2251 22.071 11.7038 24.5445C11.561 24.7767 11.8128 25.0506 12.0554 24.9264C13.9385 23.9631 16.0507 22.0308 16.289 18.1855C16.3769 17.0105 16.2451 15.3655 15.5862 13.2896C14.7389 10.6587 13.6973 9.43101 13.0947 8.9038C12.9144 8.74608 12.634 8.88587 12.6488 9.12492C12.8244 11.9637 11.7565 12.6841 11.1486 11.0606C10.9058 10.4122 10.7642 9.29061 10.7642 7.92476C10.7642 5.65086 10.1045 3.31008 8.65004 1.40795C8.27181 0.913305 7.82925 0.451089 7.32149 0.05693C7.13766 -0.0857991 6.8712 0.0576653 6.88803 0.289774C6.99971 1.83128 6.89853 6.24914 3.02266 11.5271C-0.491601 16.423 0.870166 20.183 1.35338 21.2014C2.27724 23.1523 3.56588 24.298 4.82438 24.9672Z" fill="#967BB6"/>
</svg>
